# xmcd CD database file
# Copyright (C) 1993-1998 Ti Kan
# 
# Track frame offsets:
#     150
#     16530
#     30280
#     48207
#     66087
#     87777
#     103672
#     126472
#     137712
#     149192
#     170462
#     191560
#     209760
# 
# Disc length: 3012 seconds
# 
# Revision: 1
# Processed by: cddbd v1.4b41PL1 Copyright (c) Steve Scherf et al.
# Submitted via: DiscPlay 4.0.4
# 
DISCID=b80bc20d
DTITLE=Aquablue - Carousel Of Dreams
DYEAR=1900
DGENRE=
TTITLE0=Who's Watchin' Who
TTITLE1=Eeezy Now
TTITLE2=Midnight Rambler
TTITLE3=Samba Pa Ti
TTITLE4=Standing Right Here
TTITLE5=2120 South Michigan Ave.
TTITLE6=Betrayed
TTITLE7=Drivin' With Judy
TTITLE8=Laura
TTITLE9=Flor D'Luna
TTITLE10=How High The Moon
TTITLE11=It Take A Lot To Laugh, It Takes A Train To Cry
TTITLE12=Midnight Rambler (harmonica mix)
EXTD=
EXTT0=
EXTT1=
EXTT2=
EXTT3=
EXTT4=
EXTT5=
EXTT6=
EXTT7=
EXTT8=
EXTT9=
EXTT10=
EXTT11=
EXTT12=
PLAYORDER=
